<mxfile host="app.diagrams.net" modified="2024-05-20T20:44:54.416Z" agent="Mozilla/5.0 (X11; Linux x86_64; rv:109.0) Gecko/20100101 Firefox/115.0" etag="Nd3TqgYQVN_mCKDpNRTI" version="24.3.1" type="device">
  <diagram name="Page-1" id="7R2a8si4E6ccmVrCkLdH">
    <mxGraphModel dx="1690" dy="941" grid="1" gridSize="10" guides="1" tooltips="1" connect="1" arrows="1" fold="1" page="1" pageScale="1" pageWidth="850" pageHeight="1100" math="0" shadow="0">
      <root>
        <mxCell id="0" />
        <mxCell id="1" parent="0" />
        <mxCell id="QOFDVZgyRsEB73rrlBwC-34" style="rounded=0;orthogonalLoop=1;jettySize=auto;html=1;" edge="1" parent="1" source="QOFDVZgyRsEB73rrlBwC-1" target="QOFDVZgyRsEB73rrlBwC-9">
          <mxGeometry relative="1" as="geometry" />
        </mxCell>
        <mxCell id="QOFDVZgyRsEB73rrlBwC-36" style="rounded=0;orthogonalLoop=1;jettySize=auto;html=1;" edge="1" parent="1" source="QOFDVZgyRsEB73rrlBwC-1" target="QOFDVZgyRsEB73rrlBwC-7">
          <mxGeometry relative="1" as="geometry" />
        </mxCell>
        <mxCell id="QOFDVZgyRsEB73rrlBwC-38" style="edgeStyle=none;rounded=0;orthogonalLoop=1;jettySize=auto;html=1;strokeColor=default;align=center;verticalAlign=middle;fontFamily=Helvetica;fontSize=11;fontColor=default;labelBackgroundColor=default;endArrow=classic;" edge="1" parent="1" source="QOFDVZgyRsEB73rrlBwC-1" target="QOFDVZgyRsEB73rrlBwC-6">
          <mxGeometry relative="1" as="geometry" />
        </mxCell>
        <mxCell id="QOFDVZgyRsEB73rrlBwC-39" style="edgeStyle=none;rounded=0;orthogonalLoop=1;jettySize=auto;html=1;entryX=0;entryY=0.5;entryDx=0;entryDy=0;strokeColor=default;align=center;verticalAlign=middle;fontFamily=Helvetica;fontSize=11;fontColor=default;labelBackgroundColor=default;endArrow=classic;" edge="1" parent="1" source="QOFDVZgyRsEB73rrlBwC-1" target="QOFDVZgyRsEB73rrlBwC-12">
          <mxGeometry relative="1" as="geometry" />
        </mxCell>
        <mxCell id="QOFDVZgyRsEB73rrlBwC-41" style="edgeStyle=none;rounded=0;orthogonalLoop=1;jettySize=auto;html=1;strokeColor=default;align=center;verticalAlign=middle;fontFamily=Helvetica;fontSize=11;fontColor=default;labelBackgroundColor=default;endArrow=classic;" edge="1" parent="1" source="QOFDVZgyRsEB73rrlBwC-1" target="QOFDVZgyRsEB73rrlBwC-10">
          <mxGeometry relative="1" as="geometry" />
        </mxCell>
        <mxCell id="QOFDVZgyRsEB73rrlBwC-42" style="edgeStyle=none;rounded=0;orthogonalLoop=1;jettySize=auto;html=1;strokeColor=default;align=center;verticalAlign=middle;fontFamily=Helvetica;fontSize=11;fontColor=default;labelBackgroundColor=default;endArrow=classic;" edge="1" parent="1" source="QOFDVZgyRsEB73rrlBwC-1" target="QOFDVZgyRsEB73rrlBwC-11">
          <mxGeometry relative="1" as="geometry" />
        </mxCell>
        <mxCell id="QOFDVZgyRsEB73rrlBwC-43" style="edgeStyle=none;rounded=0;orthogonalLoop=1;jettySize=auto;html=1;entryX=0;entryY=0.5;entryDx=0;entryDy=0;strokeColor=default;align=center;verticalAlign=middle;fontFamily=Helvetica;fontSize=11;fontColor=default;labelBackgroundColor=default;endArrow=classic;" edge="1" parent="1" source="QOFDVZgyRsEB73rrlBwC-1" target="QOFDVZgyRsEB73rrlBwC-14">
          <mxGeometry relative="1" as="geometry" />
        </mxCell>
        <mxCell id="QOFDVZgyRsEB73rrlBwC-1" value="Покупатель" style="shape=umlActor;verticalLabelPosition=bottom;verticalAlign=top;html=1;outlineConnect=0;" vertex="1" parent="1">
          <mxGeometry x="10" y="220" width="30" height="60" as="geometry" />
        </mxCell>
        <mxCell id="QOFDVZgyRsEB73rrlBwC-33" style="rounded=0;orthogonalLoop=1;jettySize=auto;html=1;entryX=1;entryY=0.5;entryDx=0;entryDy=0;" edge="1" parent="1" source="QOFDVZgyRsEB73rrlBwC-3" target="QOFDVZgyRsEB73rrlBwC-12">
          <mxGeometry relative="1" as="geometry" />
        </mxCell>
        <mxCell id="QOFDVZgyRsEB73rrlBwC-44" style="edgeStyle=none;rounded=0;orthogonalLoop=1;jettySize=auto;html=1;strokeColor=default;align=center;verticalAlign=middle;fontFamily=Helvetica;fontSize=11;fontColor=default;labelBackgroundColor=default;endArrow=classic;" edge="1" parent="1" source="QOFDVZgyRsEB73rrlBwC-3" target="QOFDVZgyRsEB73rrlBwC-15">
          <mxGeometry relative="1" as="geometry" />
        </mxCell>
        <mxCell id="QOFDVZgyRsEB73rrlBwC-45" style="edgeStyle=none;rounded=0;orthogonalLoop=1;jettySize=auto;html=1;strokeColor=default;align=center;verticalAlign=middle;fontFamily=Helvetica;fontSize=11;fontColor=default;labelBackgroundColor=default;endArrow=classic;" edge="1" parent="1" source="QOFDVZgyRsEB73rrlBwC-3" target="QOFDVZgyRsEB73rrlBwC-13">
          <mxGeometry relative="1" as="geometry" />
        </mxCell>
        <mxCell id="QOFDVZgyRsEB73rrlBwC-3" value="Ресторан" style="shape=umlActor;verticalLabelPosition=bottom;verticalAlign=top;html=1;outlineConnect=0;" vertex="1" parent="1">
          <mxGeometry x="790" y="340" width="30" height="60" as="geometry" />
        </mxCell>
        <mxCell id="QOFDVZgyRsEB73rrlBwC-21" style="rounded=0;orthogonalLoop=1;jettySize=auto;html=1;exitX=0.5;exitY=0;exitDx=0;exitDy=0;exitPerimeter=0;" edge="1" parent="1" source="QOFDVZgyRsEB73rrlBwC-4" target="QOFDVZgyRsEB73rrlBwC-16">
          <mxGeometry relative="1" as="geometry" />
        </mxCell>
        <mxCell id="QOFDVZgyRsEB73rrlBwC-23" style="rounded=0;orthogonalLoop=1;jettySize=auto;html=1;exitX=0.5;exitY=0;exitDx=0;exitDy=0;exitPerimeter=0;" edge="1" parent="1" source="QOFDVZgyRsEB73rrlBwC-4" target="QOFDVZgyRsEB73rrlBwC-17">
          <mxGeometry relative="1" as="geometry" />
        </mxCell>
        <mxCell id="QOFDVZgyRsEB73rrlBwC-35" style="rounded=0;orthogonalLoop=1;jettySize=auto;html=1;" edge="1" parent="1" source="QOFDVZgyRsEB73rrlBwC-4" target="QOFDVZgyRsEB73rrlBwC-12">
          <mxGeometry relative="1" as="geometry" />
        </mxCell>
        <mxCell id="QOFDVZgyRsEB73rrlBwC-4" value="Курьер" style="shape=umlActor;verticalLabelPosition=bottom;verticalAlign=top;html=1;outlineConnect=0;" vertex="1" parent="1">
          <mxGeometry x="385" y="680" width="30" height="60" as="geometry" />
        </mxCell>
        <mxCell id="QOFDVZgyRsEB73rrlBwC-6" value="Отслеживать детали заказа" style="ellipse;whiteSpace=wrap;html=1;" vertex="1" parent="1">
          <mxGeometry x="180" y="430" width="80" height="60" as="geometry" />
        </mxCell>
        <mxCell id="QOFDVZgyRsEB73rrlBwC-7" value="Просмотр меню " style="ellipse;whiteSpace=wrap;html=1;" vertex="1" parent="1">
          <mxGeometry x="320" y="120" width="80" height="60" as="geometry" />
        </mxCell>
        <mxCell id="QOFDVZgyRsEB73rrlBwC-9" value="Поиск ресторана" style="ellipse;whiteSpace=wrap;html=1;" vertex="1" parent="1">
          <mxGeometry x="262.5" y="40" width="80" height="60" as="geometry" />
        </mxCell>
        <mxCell id="QOFDVZgyRsEB73rrlBwC-10" value="Добавить в корзину" style="ellipse;whiteSpace=wrap;html=1;" vertex="1" parent="1">
          <mxGeometry x="175" y="200" width="85" height="60" as="geometry" />
        </mxCell>
        <mxCell id="QOFDVZgyRsEB73rrlBwC-11" value="Сделать заказ" style="ellipse;whiteSpace=wrap;html=1;" vertex="1" parent="1">
          <mxGeometry x="220" y="330" width="80" height="60" as="geometry" />
        </mxCell>
        <mxCell id="QOFDVZgyRsEB73rrlBwC-12" value="Зарегистрировать аккаунт" style="ellipse;whiteSpace=wrap;html=1;" vertex="1" parent="1">
          <mxGeometry x="390" y="380" width="115" height="60" as="geometry" />
        </mxCell>
        <mxCell id="QOFDVZgyRsEB73rrlBwC-13" value="Принять заказ" style="ellipse;whiteSpace=wrap;html=1;" vertex="1" parent="1">
          <mxGeometry x="550" y="305" width="80" height="60" as="geometry" />
        </mxCell>
        <mxCell id="QOFDVZgyRsEB73rrlBwC-14" value="Оплатить заказ" style="ellipse;whiteSpace=wrap;html=1;" vertex="1" parent="1">
          <mxGeometry x="370" y="280" width="80" height="60" as="geometry" />
        </mxCell>
        <mxCell id="QOFDVZgyRsEB73rrlBwC-15" value="Отказаться от заказа" style="ellipse;whiteSpace=wrap;html=1;" vertex="1" parent="1">
          <mxGeometry x="580" y="220" width="80" height="60" as="geometry" />
        </mxCell>
        <mxCell id="QOFDVZgyRsEB73rrlBwC-16" value="Забрать заказ из ресторана" style="ellipse;whiteSpace=wrap;html=1;" vertex="1" parent="1">
          <mxGeometry x="260" y="480" width="80" height="60" as="geometry" />
        </mxCell>
        <mxCell id="QOFDVZgyRsEB73rrlBwC-17" value="Довезти до заказчика" style="ellipse;whiteSpace=wrap;html=1;" vertex="1" parent="1">
          <mxGeometry x="490" y="500" width="85" height="60" as="geometry" />
        </mxCell>
        <mxCell id="QOFDVZgyRsEB73rrlBwC-26" value="Сервис доставки еды" style="shape=umlFrame;whiteSpace=wrap;html=1;pointerEvents=0;width=140;height=30;" vertex="1" parent="1">
          <mxGeometry x="110" y="20" width="610" height="620" as="geometry" />
        </mxCell>
        <mxCell id="QOFDVZgyRsEB73rrlBwC-27" value="включает" style="endArrow=open;endSize=12;dashed=1;html=1;rounded=0;" edge="1" parent="1" source="QOFDVZgyRsEB73rrlBwC-16" target="QOFDVZgyRsEB73rrlBwC-17">
          <mxGeometry x="-0.4617" y="-3" width="160" relative="1" as="geometry">
            <mxPoint x="400" y="390" as="sourcePoint" />
            <mxPoint x="507.3299999999999" y="413.13999999999993" as="targetPoint" />
            <mxPoint as="offset" />
          </mxGeometry>
        </mxCell>
        <mxCell id="QOFDVZgyRsEB73rrlBwC-46" value="Уведомить курьеров" style="ellipse;whiteSpace=wrap;html=1;fontFamily=Helvetica;fontSize=11;fontColor=default;labelBackgroundColor=default;" vertex="1" parent="1">
          <mxGeometry x="560" y="430" width="80" height="60" as="geometry" />
        </mxCell>
        <mxCell id="QOFDVZgyRsEB73rrlBwC-47" value="включает" style="endArrow=open;endSize=12;dashed=1;html=1;rounded=0;strokeColor=default;align=center;verticalAlign=middle;fontFamily=Helvetica;fontSize=11;fontColor=default;labelBackgroundColor=default;exitX=0.5;exitY=1;exitDx=0;exitDy=0;entryX=0.4;entryY=-0.083;entryDx=0;entryDy=0;entryPerimeter=0;" edge="1" parent="1" source="QOFDVZgyRsEB73rrlBwC-13" target="QOFDVZgyRsEB73rrlBwC-46">
          <mxGeometry width="160" relative="1" as="geometry">
            <mxPoint x="360" y="450" as="sourcePoint" />
            <mxPoint x="520" y="450" as="targetPoint" />
          </mxGeometry>
        </mxCell>
        <mxCell id="QOFDVZgyRsEB73rrlBwC-50" value="extends" style="endArrow=open;endSize=12;dashed=1;html=1;rounded=0;strokeColor=default;align=center;verticalAlign=middle;fontFamily=Helvetica;fontSize=11;fontColor=default;labelBackgroundColor=default;exitX=1;exitY=1;exitDx=0;exitDy=0;entryX=0.5;entryY=0;entryDx=0;entryDy=0;" edge="1" parent="1" source="QOFDVZgyRsEB73rrlBwC-9" target="QOFDVZgyRsEB73rrlBwC-7">
          <mxGeometry width="160" relative="1" as="geometry">
            <mxPoint x="240" y="390" as="sourcePoint" />
            <mxPoint x="230" y="140" as="targetPoint" />
          </mxGeometry>
        </mxCell>
        <mxCell id="QOFDVZgyRsEB73rrlBwC-51" value="extends" style="endArrow=open;endSize=12;dashed=1;html=1;rounded=0;strokeColor=default;align=center;verticalAlign=middle;fontFamily=Helvetica;fontSize=11;fontColor=default;labelBackgroundColor=default;exitX=0.588;exitY=0.983;exitDx=0;exitDy=0;exitPerimeter=0;" edge="1" parent="1" source="QOFDVZgyRsEB73rrlBwC-7" target="QOFDVZgyRsEB73rrlBwC-10">
          <mxGeometry width="160" relative="1" as="geometry">
            <mxPoint x="240" y="390" as="sourcePoint" />
            <mxPoint x="400" y="390" as="targetPoint" />
          </mxGeometry>
        </mxCell>
        <mxCell id="QOFDVZgyRsEB73rrlBwC-52" value="extends" style="endArrow=open;endSize=12;dashed=1;html=1;rounded=0;strokeColor=default;align=center;verticalAlign=middle;fontFamily=Helvetica;fontSize=11;fontColor=default;labelBackgroundColor=default;" edge="1" parent="1" source="QOFDVZgyRsEB73rrlBwC-10" target="QOFDVZgyRsEB73rrlBwC-11">
          <mxGeometry x="0.0043" width="160" relative="1" as="geometry">
            <mxPoint x="240" y="390" as="sourcePoint" />
            <mxPoint x="400" y="390" as="targetPoint" />
            <mxPoint as="offset" />
          </mxGeometry>
        </mxCell>
        <mxCell id="QOFDVZgyRsEB73rrlBwC-53" value="extends" style="endArrow=open;endSize=12;dashed=1;html=1;rounded=0;strokeColor=default;align=center;verticalAlign=middle;fontFamily=Helvetica;fontSize=11;fontColor=default;labelBackgroundColor=default;entryX=0;entryY=0.5;entryDx=0;entryDy=0;exitX=1;exitY=0;exitDx=0;exitDy=0;" edge="1" parent="1" source="QOFDVZgyRsEB73rrlBwC-11" target="QOFDVZgyRsEB73rrlBwC-14">
          <mxGeometry width="160" relative="1" as="geometry">
            <mxPoint x="300" y="340" as="sourcePoint" />
            <mxPoint x="400" y="390" as="targetPoint" />
          </mxGeometry>
        </mxCell>
      </root>
    </mxGraphModel>
  </diagram>
</mxfile>
